<?xml version="1.0"?>
<!-- Generated by SVGo -->
<svg width="2000" height="2000"
     xmlns="http://www.w3.org/2000/svg"
     xmlns:xlink="http://www.w3.org/1999/xlink">
<defs>
<marker id="arrow" refX="10" refY="6" markerWidth="50" markerHeight="50" orient="auto" >
<path d="M0,0 L0,12 L9,6 z" style="fill:red" />
</marker>
</defs>
<circle cx="1850" cy="1000" r="5" style="fill:black;stroke:black" />
<g transform="rotate(0.000000, 1850.000000 1000.000000)" >
<text x="1850" y="1000" style="text-anchor:start;font-size:12px;fill:black;" >https://monzo.com/</text>
</g>
<circle cx="1827" cy="1196" r="5" style="fill:black;stroke:black" />
<g transform="rotate(13.333333, 1827.088140 1196.023490)" >
<text x="1827" y="1196" style="text-anchor:start;font-size:12px;fill:black;" >https://monzo.com/about</text>
</g>
<circle cx="1759" cy="1381" r="5" style="fill:black;stroke:black" />
<g transform="rotate(26.666667, 1759.587744 1381.479303)" >
<text x="1759" y="1381" style="text-anchor:start;font-size:12px;fill:black;" >https://monzo.com/help</text>
</g>
<circle cx="1651" cy="1546" r="5" style="fill:black;stroke:black" />
<g transform="rotate(40.000000, 1651.137777 1546.369468)" >
<text x="1651" y="1546" style="text-anchor:start;font-size:12px;fill:black;" >https://monzo.com/features/apple-pay</text>
</g>
<circle cx="1507" cy="1681" r="5" style="fill:black;stroke:black" />
<g transform="rotate(53.333333, 1507.584803 1681.804714)" >
<text x="1507" y="1681" style="text-anchor:start;font-size:12px;fill:black;" >https://monzo.com/features/travel</text>
</g>
<circle cx="1336" cy="1780" r="5" style="fill:black;stroke:black" />
<g transform="rotate(66.666667, 1336.667801 1780.483691)" >
<text x="1336" y="1780" style="text-anchor:start;font-size:12px;fill:black;" >https://monzo.com/cdn-cgi/l/email-protection#91f9f4fde1d1fcfeffebfebff2fefc</text>
</g>
<circle cx="1147" cy="1837" r="5" style="fill:black;stroke:black" />
<g transform="rotate(80.000000, 1147.600951 1837.086590)" >
<text x="1147" y="1837" style="text-anchor:start;font-size:12px;fill:black;" >https://monzo.com/careers</text>
</g>
<circle cx="950" cy="1848" r="5" style="fill:black;stroke:black" />
<g transform="rotate(273.333333, 950.576895 1848.561935)" >
<text x="950" y="1848" style="text-anchor:end;font-size:12px;fill:black;" >https://monzo.com/features/switch</text>
</g>
<circle cx="756" cy="1814" r="5" style="fill:black;stroke:black" />
<g transform="rotate(286.666667, 756.217252 1814.291085)" >
<text x="756" y="1814" style="text-anchor:end;font-size:12px;fill:black;" >https://monzo.com/press</text>
</g>
<circle cx="575" cy="1736" r="5" style="fill:black;stroke:black" />
<g transform="rotate(300.000000, 575.000000 1736.121593)" >
<text x="575" y="1736" style="text-anchor:end;font-size:12px;fill:black;" >https://monzo.com/community/making-monzo</text>
</g>
<circle cx="416" cy="1618" r="5" style="fill:black;stroke:black" />
<g transform="rotate(313.333333, 416.694608 1618.267595)" >
<text x="416" y="1618" style="text-anchor:end;font-size:12px;fill:black;" >https://monzo.com/transparency</text>
</g>
<circle cx="289" cy="1467" r="5" style="fill:black;stroke:black" />
<g transform="rotate(326.666667, 289.835360 1467.082631)" >
<text x="289" y="1467" style="text-anchor:end;font-size:12px;fill:black;" >https://monzo.com/faq</text>
</g>
<circle cx="201" cy="1290" r="5" style="fill:black;stroke:black" />
<g transform="rotate(340.000000, 201.261272 1290.717122)" >
<text x="201" y="1290" style="text-anchor:end;font-size:12px;fill:black;" >https://monzo.com/legal/privacy-policy</text>
</g>
<circle cx="155" cy="1098" r="5" style="fill:black;stroke:black" />
<g transform="rotate(353.333333, 155.747396 1098.678977)" >
<text x="155" y="1098" style="text-anchor:end;font-size:12px;fill:black;" >https://monzo.com/business</text>
</g>
<circle cx="155" cy="901" r="5" style="fill:black;stroke:black" />
<g transform="rotate(366.666667, 155.747396 901.321023)" >
<text x="155" y="901" style="text-anchor:end;font-size:12px;fill:black;" >https://monzo.com/features/google-pay</text>
</g>
<circle cx="201" cy="709" r="5" style="fill:black;stroke:black" />
<g transform="rotate(380.000000, 201.261272 709.282878)" >
<text x="201" y="709" style="text-anchor:end;font-size:12px;fill:black;" >https://monzo.com/features/overdrafts</text>
</g>
<circle cx="289" cy="532" r="5" style="fill:black;stroke:black" />
<g transform="rotate(393.333333, 289.835360 532.917369)" >
<text x="289" y="532" style="text-anchor:end;font-size:12px;fill:black;" >https://web.monzo.com</text>
</g>
<circle cx="416" cy="381" r="5" style="fill:black;stroke:black" />
<g transform="rotate(406.666667, 416.694608 381.732405)" >
<text x="416" y="381" style="text-anchor:end;font-size:12px;fill:black;" >https://monzo.com/blog/how-money-works</text>
</g>
<circle cx="574" cy="263" r="5" style="fill:black;stroke:black" />
<g transform="rotate(420.000000, 575.000000 263.878407)" >
<text x="574" y="263" style="text-anchor:end;font-size:12px;fill:black;" >https://monzo.com/tone-of-voice</text>
</g>
<circle cx="756" cy="185" r="5" style="fill:black;stroke:black" />
<g transform="rotate(433.333333, 756.217252 185.708915)" >
<text x="756" y="185" style="text-anchor:end;font-size:12px;fill:black;" >https://monzo.com/legal/fscs-information</text>
</g>
<circle cx="950" cy="151" r="5" style="fill:black;stroke:black" />
<g transform="rotate(446.666667, 950.576895 151.438065)" >
<text x="950" y="151" style="text-anchor:end;font-size:12px;fill:black;" >https://monzo.com/cdn-cgi/l/email-protection#731b161f03331e1c1d091c5d101c1e</text>
</g>
<circle cx="1147" cy="162" r="5" style="fill:black;stroke:black" />
<g transform="rotate(280.000000, 1147.600951 162.913410)" >
<text x="1147" y="162" style="text-anchor:start;font-size:12px;fill:black;" >https://monzo.com/blog</text>
</g>
<circle cx="1336" cy="219" r="5" style="fill:black;stroke:black" />
<g transform="rotate(293.333333, 1336.667801 219.516309)" >
<text x="1336" y="219" style="text-anchor:start;font-size:12px;fill:black;" >https://monzo.com/community</text>
</g>
<circle cx="1507" cy="318" r="5" style="fill:black;stroke:black" />
<g transform="rotate(306.666667, 1507.584803 318.195286)" >
<text x="1507" y="318" style="text-anchor:start;font-size:12px;fill:black;" >https://monzo.com/download</text>
</g>
<circle cx="1651" cy="453" r="5" style="fill:black;stroke:black" />
<g transform="rotate(320.000000, 1651.137777 453.630532)" >
<text x="1651" y="453" style="text-anchor:start;font-size:12px;fill:black;" >https://monzo.com/legal/terms-and-conditions</text>
</g>
<circle cx="1759" cy="618" r="5" style="fill:black;stroke:black" />
<g transform="rotate(333.333333, 1759.587744 618.520697)" >
<text x="1759" y="618" style="text-anchor:start;font-size:12px;fill:black;" >https://monzo.com/legal/cookie-policy</text>
</g>
<circle cx="1827" cy="803" r="5" style="fill:black;stroke:black" />
<g transform="rotate(346.666667, 1827.088140 803.976510)" >
<text x="1827" y="803" style="text-anchor:start;font-size:12px;fill:black;" >https://monzo.com/information-about-current-account-services</text>
</g>
<line x1="1850" y1="1000" x2="201" y2="709" style="stroke:black" marker-end="url(#arrow)" />
<line x1="1850" y1="1000" x2="289" y2="532" style="stroke:black" marker-end="url(#arrow)" />
<line x1="1850" y1="1000" x2="416" y2="381" style="stroke:black" marker-end="url(#arrow)" />
<line x1="1850" y1="1000" x2="574" y2="263" style="stroke:black" marker-end="url(#arrow)" />
<line x1="1850" y1="1000" x2="756" y2="185" style="stroke:black" marker-end="url(#arrow)" />
<line x1="1850" y1="1000" x2="201" y2="1290" style="stroke:black" marker-end="url(#arrow)" />
<line x1="1850" y1="1000" x2="155" y2="1098" style="stroke:black" marker-end="url(#arrow)" />
<line x1="1850" y1="1000" x2="155" y2="901" style="stroke:black" marker-end="url(#arrow)" />
<line x1="1850" y1="1000" x2="950" y2="151" style="stroke:black" marker-end="url(#arrow)" />
<line x1="1850" y1="1000" x2="1507" y2="318" style="stroke:black" marker-end="url(#arrow)" />
<line x1="1850" y1="1000" x2="1651" y2="453" style="stroke:black" marker-end="url(#arrow)" />
<line x1="1850" y1="1000" x2="1759" y2="618" style="stroke:black" marker-end="url(#arrow)" />
<line x1="1850" y1="1000" x2="1827" y2="803" style="stroke:black" marker-end="url(#arrow)" />
<line x1="1850" y1="1000" x2="1147" y2="162" style="stroke:black" marker-end="url(#arrow)" />
<line x1="1850" y1="1000" x2="1336" y2="219" style="stroke:black" marker-end="url(#arrow)" />
<line x1="1850" y1="1000" x2="1651" y2="1546" style="stroke:black" marker-end="url(#arrow)" />
<line x1="1850" y1="1000" x2="1507" y2="1681" style="stroke:black" marker-end="url(#arrow)" />
<line x1="1850" y1="1000" x2="1336" y2="1780" style="stroke:black" marker-end="url(#arrow)" />
<line x1="1850" y1="1000" x2="1147" y2="1837" style="stroke:black" marker-end="url(#arrow)" />
<line x1="1850" y1="1000" x2="1827" y2="1196" style="stroke:black" marker-end="url(#arrow)" />
<line x1="1850" y1="1000" x2="1759" y2="1381" style="stroke:black" marker-end="url(#arrow)" />
<line x1="1850" y1="1000" x2="575" y2="1736" style="stroke:black" marker-end="url(#arrow)" />
<line x1="1850" y1="1000" x2="416" y2="1618" style="stroke:black" marker-end="url(#arrow)" />
<line x1="1850" y1="1000" x2="289" y2="1467" style="stroke:black" marker-end="url(#arrow)" />
<line x1="1850" y1="1000" x2="950" y2="1848" style="stroke:black" marker-end="url(#arrow)" />
<line x1="1850" y1="1000" x2="756" y2="1814" style="stroke:black" marker-end="url(#arrow)" />
</svg>
